<?xml version="1.0" encoding="UTF-8"?>
<svg width="752pt" height="752pt" version="1.1" viewBox="0 0 752 752" xmlns="http://www.w3.org/2000/svg">
 <g>
  <path d="m207.41 201.25c-0.47266-6.6289-0.94531-17.523-10.418-16.574 0 0-9.4727 6.6289-15.156 9.9453-5.6836 3.3164-23.68 4.7344-26.992 6.6289-3.3164 1.8945-9.4727 6.1562-5.6836 18.469 0 0 3.7891-3.7891 7.5781-4.2617 4.2617-0.47266 40.254-3.7891 40.254-3.7891s10.891-3.7891 10.418-10.418z"/>
  <path d="m602.38 455.09c-13.262-13.734-44.043-28.414-62.039-38.359 20.836-0.47266 60.145 24.625 60.145 24.625s-18.469-27.941-36.938-38.359c-3.7891-1.8945-21.312-8.0508-27.469-8.5234-25.102-2.8398-41.676-8.0508-63.461-20.836-4.7344-2.8398-8.0508-4.7344-8.0508-4.7344l23.207 4.7344c-17.051-16.578-27.945-21.312-36.941-27.473-9.4727-6.1562-36.465-15.629-36.465-15.629 5.2109-0.94531 14.68 0.47266 14.68 0.47266-21.312-16.574-58.25-22.258-80.035-18.941-21.785 3.3164-39.309-8.9961-39.309-8.9961l-48.305 19.418c-1.4219 0.47266-1.8945 2.3672-0.47266 3.3164 8.0508 7.5781 12.785 26.52 14.207 37.414 0.94531 7.5781 13.262 16.102 19.891 19.891 15.156 8.5234 28.414 21.312 34.57 27.941 2.3672 2.8398 5.6836 4.7344 9.4727 5.2109 32.203 5.2109 98.977-3.3164 134.97 2.3672 31.258 5.2109 101.82 30.781 125.97 41.203 2.3711 0.94141 4.7383-2.375 2.3711-4.7422z"/>
  <path d="m332.43 493.92-1.8945 33.152s-2.8398 0.94531-6.1562 2.3672l-0.47266 17.996c0.94531 0 1.4219-0.47266 2.3672-0.47266 13.262-3.3164 18.469-7.1055 18.469-19.418v-51.621c-3.7891 16.102-12.312 17.996-12.312 17.996z"/>
  <path d="m291.23 560.7s2.8398-1.4219 6.6289-3.3164l0.94531-28.887c-8.9961-1.8945-17.996-3.7891-17.996-3.7891s-7.1055 10.418-23.68 12.312c0 0 5.2109 7.1055 5.2109 20.836 0.47656 0 20.84-2.3672 28.891 2.8438z"/>
  <path d="m321.54 414.36c-17.051-18.941-39.781-25.574-48.777-37.887-9.4727-12.312-5.2109-21.785-13.262-36.938-4.2617-8.0508-8.9961-13.262-12.312-16.102-1.4219-1.4219-0.94531-3.7891 0.94531-4.2617 15.156-3.3164 32.676-13.734 40.254-16.574 8.0508-3.3164 15.629-5.2109 15.629-5.2109s-18.469-21.312-21.785-47.832c-3.3164-26.992 13.262-49.727-4.2617-75.773-17.523-25.574-50.672-16.574-62.039-11.367-11.367 5.2109-17.523 18.469-17.523 18.469s8.0508-9.4727 13.262 16.574c1.8945 10.418-4.2617 14.68-7.1055 16.102 3.7891-0.94531 15.629-1.4219 18.469 38.832 3.3164 48.305-30.781 56.355-27.941 106.55 3.3164 50.672 53.516 63.934 70.09 80.508 16.574 16.574 20.836 27.941 31.73 40.254 2.8398 3.3164 5.6836 5.2109 8.0508 6.6289l-0.94531 7.1055c-0.47266 3.3164-0.47266 6.1562 0 9.4727l1.4219 7.5781-1.8945 51.621s-10.418 4.2617-15.629 4.2617c-5.2109 0-34.098-6.1562-34.098-6.1562s-7.1055 10.418-23.68 12.312c0 0 5.2109 7.1055 5.2109 20.836 0 0 20.836-1.8945 28.887 3.3164 0 0 21.785-11.367 35.047-14.207 13.262-2.8398 18.469-7.1055 18.469-19.418v-51.621s5.6836-10.418 4.2617-21.785c7.1055 0.94531 14.207-7.1055 14.207-18.469 0-11.367-11.367-40.254-11.367-40.254l17.523 29.836c15.629 0.94531 91.875 1.8945 100.87-9.4727 9.4727-11.367 49.254-22.73 49.254-22.73-62.984-12.785-152.49 6.1602-170.96-14.203zm-87.137-227.32c-2.3672 0-4.7344-1.4219-4.7344-3.7891-3.7891-3.3164-8.5234-3.7891-8.5234-3.7891 13.262 0 32.676-3.3164 32.676-3.3164s-7.5781 3.7891-14.207 6.1562v0.47266c-0.003906 2.3711-2.3711 4.2656-5.2109 4.2656z"/>
  <path d="m205.04 213.09c-0.94531 0-0.94531 0.47266-0.94531 0.47266-0.003906 0 0.47266 0 0.94531-0.47266z"/>
 </g>
</svg>
